<?xml version="1.0" encoding="utf-8"?>
<!-- Generator: Adobe Illustrator 17.1.0, SVG Export Plug-In . SVG Version: 6.00 Build 0)  -->
<!DOCTYPE svg PUBLIC "-//W3C//DTD SVG 1.1//EN" "http://www.w3.org/Graphics/SVG/1.1/DTD/svg11.dtd">
<svg version="1.1" id="Calque_1" xmlns="http://www.w3.org/2000/svg" xmlns:xlink="http://www.w3.org/1999/xlink" x="0px" y="0px"
	 viewBox="0 0 100 100" enable-background="new 0 0 100 100" xml:space="preserve">
<g>
	<path fill="#FEFEFE" d="M50,100c-16.4,0-32.8,0-49.2,0C0.1,100,0,99.9,0,99.2C0,66.4,0,33.6,0,0.8C0,0.1,0.1,0,0.8,0
		c32.8,0,65.6,0,98.4,0c0.7,0,0.8,0.1,0.8,0.8c0,32.8,0,65.6,0,98.4c0,0.7-0.1,0.8-0.8,0.8C82.8,100,66.4,100,50,100z"/>
	<path fill="#169F84" d="M83.8,52.1c0,10.1,0,20.2,0,30.3c0,0.8-0.2,1-1,1c-20.3,0-40.5,0-60.8,0c-0.9,0-1-0.3-1-1.1
		c0.1-2.2,0-2.2,2.2-2.2c18.6,0,37.1,0,55.7,0c1.7,0,1.7-0.1,1.7-1.8c0-18.9,0-37.8,0-56.7c0-1,0.3-1.2,1.2-1.2c2,0.1,2,0,2,2
		C83.8,32.4,83.8,42.3,83.8,52.1z"/>
	<path fill="#1DD1AE" d="M48.3,78.6c-9.8,0-19.6,0-29.4,0c-0.8,0-1.1-0.1-1.1-1c0-19.7,0-39.4,0-59.2c0-0.8,0.2-1,1-1
		c19.8,0,39.5,0,59.3,0c0.8,0,1,0.2,1,1c0,19.7,0,39.4,0,59.2c0,0.8-0.2,1.1-1,1C68.1,78.6,58.2,78.6,48.3,78.6z"/>
	<path fill="#FEFEFE" d="M19.2,47.8c0-9.3,0-18.7,0-28c0-0.9,0.2-1,1.1-1c18.7,0,37.4,0,56.2,0c0.8,0,1,0.2,1,1
		c0,18.8,0,37.5,0,56.3c0,0.8-0.2,1-1,1c-18.7,0-37.4,0-56.2,0c-0.8,0-1.1-0.2-1-1C19.2,66.6,19.2,57.2,19.2,47.8z"/>
	<path fill="#1DD1AE" d="M48.2,75c-8.7,0-17.3,0-26,0c-0.9,0-1-0.2-1-1.1c0-17.4,0-34.8,0-52.2c0-0.8,0.2-1,1-1
		c17.4,0,34.8,0,52.3,0c0.8,0,1,0.2,1,1c0,17.4,0,34.8,0,52.2c0,0.8-0.2,1.1-1,1C65.7,75,56.9,75,48.2,75z"/>
	<path fill="#FEFEFE" d="M66.6,65.9c-2.3,1.3-4.6,1.8-7,1.3c-4.4-0.9-7.3-4.8-7-9.4c0.3-4,4.2-7.5,8.5-7.6c1.7,0,3.3,0.2,4.8,1.1
		c0.7,0.4,1.5,0.1,2.2,0.1c0.7,0,1,0.1,0.9,0.9c-0.1,0.8-0.1,1.7,0,2.5c0.1,0.7-0.2,0.9-0.9,0.9c-0.8,0-1.6,0.1-1.8-0.9
		c-0.1-0.3-0.4-0.5-0.6-0.7c-1.6-1.4-5-1.7-7.1-0.6c-2.1,1.1-3.3,3.5-3,6c0.3,2.7,2,4.7,4.4,5.3c2.3,0.5,4.4-0.1,6.2-1.7
		c0.6-0.5,0.3-1.3,0.2-2c-0.1-0.5-0.7-0.2-1-0.2c-1.3,0-2.5,0-3.8,0c-0.5,0-0.7-0.2-0.7-0.7c-0.1-1.9-0.1-1.9,1.8-1.9
		c1.9,0,3.7,0,5.6,0c0.6,0,0.8,0.1,0.8,0.8c0,2.6,0,5.1,0,7.7c0,0.5-0.1,0.7-0.7,0.8C67.4,67.5,66.7,67.3,66.6,65.9z"/>
	<path fill="#FEFEFE" d="M43,63.8c1.5-4.2,3-8.1,4.4-12.1c0.3-1,0.8-1.5,1.9-1.3c0.2,0,0.4,0,0.6,0c1.6,0,1.6,0,1.6,1.6
		c0,0.6-0.1,1-0.8,0.9c-0.7-0.1-0.9,0.3-1.1,0.8c-1.6,4.3-3.2,8.6-4.7,12.9c-0.2,0.6-0.5,0.9-1.2,0.8c-2.1,0-2.1,0-2.9-2
		c-1.4-3.9-2.9-7.9-4.3-11.8c-0.2-0.5-0.4-0.9-1-0.8c-0.7,0.1-0.9-0.3-0.8-0.9c0-0.2,0-0.4,0-0.6c-0.1-0.8,0.2-1,1-1
		c2.5,0,2.5,0,3.4,2.3c1.2,3.3,2.4,6.6,3.6,9.9C42.7,62.9,42.8,63.2,43,63.8z"/>
	<path fill="#FDFEFE" d="M65.8,29c1.2,0.7,2.2,1.2,3.4,1.9c-1.2,0.7-2.2,1.3-3.1,1.9c-0.3-0.1-0.2-0.3-0.2-0.5
		c0.1-0.7-0.2-0.9-0.9-0.9c-0.9,0.1-1.8,0-2.7,0c-10.6,0-21.2,0-31.8,0c-0.9,0-1.3,0.2-1.2,1.2c0.1,2.9,0,5.7,0.1,8.6
		c0.1,4.8,0,9.6,0,14.4c0,3.6,0,7.1-0.1,10.7c0,0.9,0.1,1.5,1.4,1.2c-0.6,1.2-1.2,2.2-1.8,3.4c-0.7-1.2-1.3-2.2-2.1-3.4
		c1.6,0.4,1.5-0.4,1.5-1.4c0-7.8-0.1-15.7-0.1-23.5c0-3.7,0-7.5,0-11.2c0-0.8,0.2-1,1-1c3.3,0.1,6.6,0.1,9.9,0
		c2.2-0.1,4.4,0.1,6.6,0.1c6.3,0,12.6,0,18.9,0C65.5,30.4,66.1,30.3,65.8,29z"/>
</g>
</svg>
